<?xml version="1.0" encoding="utf-8"?>
<!-- Government of Canada signature / Signature du gouvernement du Canada -->
<svg version="1.1" xmlns="http://www.w3.org/2000/svg" width="100%" height="100%" viewBox="0 0 819 75.97">
<!-- Symbol / Symbole -->
<path d="m166.19 46.298c-0.778 0.778-1.035 0.959-1.553 1.294-2.071 1.294-4.401 1.553-6.731 1.553-5.179 0-9.58-2.329-12.429-6.213-3.366-4.66-3.625-10.616-3.625-16.053 0-5.954 0.519-12.686 4.919-17.089 2.59-2.59 6.472-4.142 10.098-4.142 3.107 0 6.99 0.778 9.321 2.849 0.778 0.778 1.812 1.812 2.331 2.848l-6.99 6.99c-0.778-2.071-2.331-3.884-4.66-3.884-1.553 0-2.59 0.778-3.366 1.812-1.553 1.812-1.812 5.696-1.812 8.026 0 2.589 0.259 5.954 1.294 8.285 0.777 1.553 2.33 2.59 4.142 2.59 1.812 0 3.625-1.294 4.142-2.848l7.249 7.767 0.259 0.259c-0.777 1.813-1.553 3.366-2.59 4.401z" fill="#000"/>
<polygon points="223.94 48.628 210.99 48.628 193.64 25.425 193.64 48.628 183.8 48.628 183.8 4.66 196.75 4.66 213.84 27.863 213.84 4.66 223.94 4.66" fill="#000"/>
<path d="m244.8 48.628h-10.1v-43.968h10.1v43.968z" fill="#000"/>
<path d="m272.66 23.354c-0.777-0.777-1.553-1.294-2.59-1.553-1.035-0.518-2.07-0.518-3.107-0.518-3.365 0-4.66 2.59-4.66 5.438v21.906h-10.1v-30.967h-0.259v-12.946h10.1v6.99c1.812-4.142 4.66-7.767 9.58-7.767 0.518 0 1.295 0.259 1.813 0.259 0.258 0 0.518 0.259 0.777 0.259l-1.554 18.899z" fill="#000"/>
<path d="m303.11 48.628h-10.1v-4.66c-1.553 3.107-5.18 5.437-8.803 5.437-7.766 0-13.722-6.472-13.722-14.24 0-7.767 5.957-14.24 13.722-14.24 3.365 0 7.249 1.812 8.803 5.438v-4.66h10.1v26.925zm-17.347-17.347c2.848 0 5.178 2.59 5.178 5.438 0 2.848-2.33 5.438-5.178 5.438-2.849 0-5.179-2.59-5.179-5.438 0-2.849 2.33-5.438 5.179-5.438z" fill="#000"/>
<path d="m333.82 41.121c-2.33 4.401-6.73 8.285-11.91 8.285-7.508 0-13.981-5.437-13.981-13.204 0-7.508 6.214-13.463 13.722-13.463 7.508 0 12.946 5.955 12.946 13.204v2.589h-16.829c0.778 2.331 2.848 3.884 5.179 3.884 2.072 0 3.625-0.777 5.179-2.33l5.694 1.035zm-9.062-6.99c0-1.553-1.812-3.625-4.142-3.625s-4.142 1.812-4.401 3.625h8.543z" fill="#000"/>
<path d="m441.28 48.628h-9.58l-11.392-44.228h10.875l5.955 25.79 5.955-25.79h8.803l5.955 25.79 5.955-25.79h10.875l-11.393 44.228h-9.58l-6.214-24.755-6.214 24.755z" fill="#000"/>
<path d="m512.21 4.66c4.144 0 13.723 1.553 13.723 17.606 0 16.052-9.58 17.606-13.723 17.606h-7.766v8.803h-10.1v-43.968h17.866v-0.047zm-7.768 25.79h2.589c1.812 0 7.769 0 7.769-8.285 0-8.026-5.957-8.026-7.769-8.026h-2.589v16.311z" fill="#000"/>
<path d="m546.56 48.628h-10.1v-43.968h10.1v43.968z" fill="#000"/>
<path d="m569.49 48.628h-10.1v-43.968h10.1v43.968z" fill="#000"/>
<path d="m594.24 9.58c2.848 0 5.179 2.33 5.179 5.178 0 2.849-2.331 5.179-5.179 5.179s-5.179-2.33-5.179-5.179c0-2.848 2.33-5.178 5.179-5.178zm5.179 39.048h-10.099v-30.968h10.099v30.968z" fill="#000"/>
<path d="m625.72 34.487h15.275v14.142h-5.438v-0.777c-2.331 0.777-4.66 1.553-7.249 1.553-10.098 0-18.124-5.696-18.124-17.089 0-9.58 6.731-18.123 18.641-18.123 4.919 0 9.58 1.812 13.204 5.696l-6.99 6.99c-1.553-1.553-3.624-2.59-5.955-2.59-4.66 0-7.767 3.107-7.767 7.767 0 5.437 3.884 8.026 8.544 8.026 0.778 0 1.553 0 2.331-0.26v-5.437h-6.731l0.259 0.102z" fill="#000"/>
<path d="m680.66 21.541v27.087h-10.099v-4.66c-1.553 3.107-5.179 5.437-8.803 5.437-7.767 0-13.723-6.472-13.723-14.24 0-7.767 5.956-14.24 13.723-14.24 3.624 0 7.249 1.812 8.803 5.438v-4.66h10.099v-0.162zm-17.348 9.838c2.849 0 5.18 2.59 5.18 5.438 0 2.848-2.331 5.438-5.18 5.438s-5.178-2.59-5.178-5.438c0-2.848 2.33-5.438 5.178-5.438z" fill="#000"/>
<path d="m383.42 48.628h-15.534l-2.59-6.99h-12.946l-2.59 6.99h-15.534l19.418-43.968h10.358l19.418 43.968zm-22.167-14.758-3.107-9.321-3.107 9.321h6.214z" fill="#000"/>
<!-- Text -->
<path d="m706.13 44.487c-2.59 1.812-5.955 2.589-9.321 2.589-5.437 0-11.91-2.589-11.91-8.026 0-1.812 0.519-3.625 1.553-5.179 1.295-1.553 2.849-2.59 4.66-3.107-1.553-1.035-3.625-2.331-3.625-4.401 0-3.107 3.365-5.437 6.214-5.437 2.589 0 5.437 1.812 5.437 4.66 0 2.589-1.554 3.884-3.625 4.919l5.437 4.142c0.519-1.035 0.778-2.33 0.778-3.624h4.141c0 2.59-0.777 4.919-2.071 7.26l5.698 4.401-3.366 2.848zm-13.204-7.249c-1.553 0.518-2.331 2.33-2.331 3.884 0 2.071 2.33 3.366 4.142 3.366 1.553 0 3.107-0.518 4.401-1.553l-6.212-5.697z" fill="#000"/>
<path d="m730.62 46.815c-0.777 0-2.33-0.259-2.33-0.259-1.812-0.259-3.625-0.518-5.438-0.518-2.33 0-5.437 0.518-5.437 3.366 0 2.071 3.107 2.071 4.66 2.071 2.071 0 3.884-0.518 5.438-1.553v2.072c-1.812 0.777-3.884 1.553-5.956 1.553-3.107 0-5.955-1.294-5.955-4.66 0-4.401 5.438-4.919 8.803-4.919 1.555 0 3.367 0 4.919 0.259 0.26 0 0.777 0 1.036 0.26l0.26-2.59h-6.731v-2.33h6.99l-1.035 10.099h-2.072c0-0.777 0-1.553 0.26-2.331 0-0.259 0.259-0.517 0.259-0.777 0-0.259-0.259-0.259-0.259-0.259l-1.812 0.516z" fill="#000"/>
<path d="m749.51 36.975v2.59h-10.875v-2.59h10.875zm-3.883-6.472h2.59v16.052c0 0.778 0.777 1.295 1.554 1.295 0.258 0.259 0.777 0.259 1.035 0.259 0.26 0 0.518 0.259 0.777 0.259v2.071c-0.518 0-1.295 0.259-1.812 0.259-1.035 0-1.812 0-2.589-0.259-1.553-0.259-2.848-1.553-2.848-3.107v-16.829h1.293z" fill="#000"/>
<path d="m762.97 36.975c0 1.553-1.293 2.848-2.848 2.848-1.554 0-2.849-1.295-2.849-2.848 0-1.554 1.295-2.848 2.849-2.848 1.553 0 2.848 1.294 2.848 2.848zm-5.178 0c0 1.295 1.036 2.331 2.33 2.331 1.295 0 2.331-1.036 2.331-2.331 0-1.294-1.036-2.33-2.331-2.33-1.292 0-2.33 1.036-2.33 2.33zm1.295 1.553h-0.778v-3.107h1.812c0.777 0 1.553 0.259 1.553 1.294 0 0.518-0.517 0.777-1.035 1.035l1.035 0.778h-0.777l-1.035-0.777h-0.518l-0.257 0.777zm0.777-1.036h0.777c0.259 0 0.777 0 0.777-0.518 0-0.259-0.518-0.259-0.777-0.259h-0.777v0.777z" fill="#000"/>
<!-- Leaf -->
<path d="m135.49 23.613c-1.553 1.553-3.107 2.59-5.179 3.366 1.295-2.331 2.33-5.179 3.107-7.767-1.553 1.553-3.366 2.849-5.438 3.625 1.295-2.848 2.589-4.919 3.366-7.508-2.071 1.293-3.884 2.33-6.214 3.107 0.777-1.553 1.812-3.366 2.59-4.919-3.884 1.812-7.249 4.142-10.616 6.213 0.777-1.553 1.553-3.107 2.33-4.66-2.589 1.294-5.179 2.849-7.767 3.884 0.518-1.553 1.294-3.107 1.812-4.66-3.366 1.553-6.731 3.107-10.358 4.142 0.778-2.071 1.553-3.884 2.071-5.955-3.107 1.812-6.213 3.366-9.58 4.142 0.518-1.553 1.036-3.107 1.553-4.919-5.955 2.849-12.168 5.438-18.382 5.438-6.213 0-12.427-2.59-18.382-5.438 0.518 1.553 1.036 3.366 1.553 4.919-3.366-0.777-6.472-2.33-9.58-4.142 0.518 2.071 1.553 3.884 2.071 5.955-3.366-1.035-6.99-2.59-10.358-4.142 0.518 1.553 1.294 3.107 1.812 4.66-2.589-1.035-5.179-2.849-7.767-3.884 0.777 1.553 1.553 3.107 2.33 4.66-3.366-2.071-6.731-4.401-10.616-6.213 0.777 1.553 1.812 3.366 2.59 4.919-2.33-0.777-4.142-1.813-6.214-3.107 0.777 2.59 2.071 4.66 3.366 7.508-2.071-0.777-3.884-2.072-5.438-3.625 0.777 2.331 1.812 5.179 3.107 7.767-2.071-0.777-3.624-1.812-5.179-3.366 1.812 4.919 3.107 10.1 6.99 14.241-2.59-1.035-4.142-2.589-5.955-4.401 1.035 3.884 2.071 8.285 5.955 11.392-2.331-0.777-4.142-1.812-5.696-3.624 2.071 6.213 10.099 10.875 15.535 13.722-2.071-0.259-4.143-0.518-6.214-1.036 2.59 2.59 5.955 5.438 9.062 7.508-7.767-0.777-15.535-3.625-21.748-8.026 0.778 1.813 1.553 3.366 2.59 5.179-4.142-2.59-7.767-5.956-11.134-9.58 0.777 2.33 1.812 4.919 2.848 7.249-3.107-2.849-5.955-5.696-8.285-9.062 0.777 2.59 1.812 4.919 2.848 7.508-2.59-2.849-4.66-6.214-6.472-9.58 0.777 3.107 1.553 6.214 2.33 9.58-2.33-4.66-3.884-9.58-4.919-14.499 0 2.33 0.259 4.919 0.518 7.249-1.812-6.731-2.59-13.722-2.59-20.713 0-57.173 46.3-73.226 75.97-73.226s75.97 16.052 75.97 73.226c0 6.99-0.777 13.981-2.59 20.713 0.26-2.33 0.519-4.919 0.519-7.249-1.036 4.919-2.59 9.838-4.919 14.499 0.777-3.366 1.553-6.472 2.33-9.58-1.812 3.366-3.884 6.731-6.472 9.58 1.036-2.59 2.071-4.919 2.848-7.508-2.33 3.366-5.179 6.214-8.285 9.062 1.036-2.33 2.071-4.919 2.848-7.249-3.366 3.624-6.99 6.99-11.134 9.58 1.036-1.812 1.812-3.366 2.59-5.179-6.214 4.401-13.981 7.249-21.748 8.026 3.107-2.071 6.472-4.919 9.062-7.508-2.071 0.518-4.142 0.777-6.214 1.036 5.438-2.848 13.464-7.508 15.535-13.722-1.553 1.812-3.365 2.848-5.696 3.624 3.884-3.107 4.919-7.508 5.955-11.392-1.812 1.812-3.365 3.366-5.955 4.401 3.884-4.142 5.179-9.321 6.99-14.241z" fill="#000"/>
<!-- Text -->
<path d="m53.691 31.638h-5.437v16.569h-3.625v-16.569h-5.438v-3.107h14.5v3.107z" fill="#000"/>
<path d="m62.752 42.934-1.294 5.179h-3.366l5.438-19.677h4.401l5.438 19.677h-3.625l-1.294-5.179h-5.698zm5.179-2.849-1.295-5.179c-0.259-1.295-0.518-2.59-0.777-3.884-0.259 1.294-0.518 2.59-0.777 3.884l-1.295 5.179h4.144z" fill="#000"/>
<path d="m87.766 48.11h-3.624v-8.544h-6.99v8.544h-3.625v-19.677h3.625v7.767h6.99v-7.767h3.624v19.677z" fill="#000"/>
<path d="m103.04 48.11h-10.357v-19.676h10.098v3.366h-6.472v4.66h5.955v3.107h-5.955v5.438h6.731v3.105z" fill="#000"/>
<!-- Leaf -->
<polygon points="75.191 3.107 76.745 3.107 75.968 0" fill="#000"/>
<path d="m79.334 12.687c0.518-0.777 0.518-1.553 0.518-2.33 0.259 0.777 0.259 1.294 0.259 2.071-0.259-0.777-0.778-1.294-1.294-1.553 0.259 0.518 0.518 1.295 0.518 1.812z" fill="#000"/>
<path d="m78.039 9.062c0.259-0.518 0.518-0.777 0.777-1.294-0.259 0-0.518 0-0.777 0.259-0.259-0.518-0.518-1.294-0.777-1.812-0.259 0.518-0.518 1.294-0.777 1.812-0.26-0.259-0.518-0.259-0.777-0.259 0.259 0.518 0.518 0.777 0.777 1.294-0.518 0-0.777-0.259-1.294-0.259 0.518 0.518 0.777 0.777 1.294 1.294-0.518 0.259-1.036 0.518-1.553 0.518 0.777 0.259 1.295 0.518 2.071 0.777 0 0.259-0.259 0.518-0.518 0.777 0.518-0.259 1.035-0.259 1.553-0.259 0 0.518-0.259 1.036-0.518 1.553 0.518-0.259 1.035-0.777 1.294-1.294 0.518 0.518 0.777 1.036 1.036 1.553v-0.518c0.518-0.259 1.035-0.777 1.294-1.294 0 0.518-0.259 1.035-0.518 1.553 0.518 0 1.035 0 1.553-0.259-0.259-0.259-0.518-0.518-0.518-0.777 0.777-0.259 1.553-0.518 2.071-0.777-0.518 0-1.036-0.259-1.553-0.518 0.518-0.518 0.777-0.777 1.294-1.294-0.518 0-0.777 0.259-1.295 0.259 0.259-0.517 0.518-0.776 0.778-1.294-0.26 0-0.518 0-0.778 0.259-0.259-0.518-0.518-1.294-0.777-1.812-0.259 0.518-0.518 1.294-0.777 1.812-0.259-0.259-0.517-0.259-0.777-0.259 0.259 0.518 0.518 0.776 0.777 1.294-0.518 0-0.777-0.259-1.294-0.259 0.518 0.518 0.777 0.776 1.294 1.294z" fill="#000"/>
</svg>
